<svg width="23" height="24" viewBox="0 0 23 24" fill="none" xmlns="http://www.w3.org/2000/svg">
<path d="M19.5968 4.32351L13.5651 0.835176C12.4101 0.170176 10.6018 0.170176 9.44676 0.835176L3.35676 4.34684C0.941758 5.98018 0.801758 6.22518 0.801758 8.82684V15.1618C0.801758 17.7635 0.941758 18.0202 3.40342 19.6768L9.43509 23.1652C10.0184 23.5035 10.7651 23.6668 11.5001 23.6668C12.2351 23.6668 12.9818 23.5035 13.5534 23.1652L19.6434 19.6535C22.0584 18.0202 22.1984 17.7752 22.1984 15.1735V8.82684C22.1984 6.22518 22.0584 5.98018 19.5968 4.32351ZM11.5001 15.7918C9.41176 15.7918 7.70843 14.0885 7.70843 12.0002C7.70843 9.91184 9.41176 8.20851 11.5001 8.20851C13.5884 8.20851 15.2918 9.91184 15.2918 12.0002C15.2918 14.0885 13.5884 15.7918 11.5001 15.7918Z" fill="white"/>
</svg>
